<svg xmlns="http://www.w3.org/2000/svg" viewBox="0 0 80 80" version="1.1">
    <defs>
        <linearGradient id="anger">
            <stop offset="0%" stop-color="#F66565"></stop>
            <stop offset="100%" stop-color="#fda085"></stop>
        </linearGradient>
        <linearGradient id="disgust">
            <stop offset="0%" stop-color="#F0F2F0"></stop>
            <stop offset="100%" stop-color="#000C40"></stop>
        </linearGradient>
    </defs>
    <g>
        <path d="M 40 7 C 32.351563 7 25.308594 9.613281 19.710938 13.988281 C 16.457031 12.015625 13.8125 8.417969 13.8125 8.417969 L 12.839844 7.050781 L 12.101563 8.5625 C 12.101563 8.5625 10.980469 10.859375 11 13.953125 C 11.015625 16.050781 11.273438 18.976563 12.515625 21.746094 C 9.035156 26.976563 7 33.25 7 40 C 7 58.214844 21.785156 73 40 73 C 58.214844 73 73 58.214844 73 40 C 73 33.25 70.964844 26.976563 67.484375 21.746094 C 68.730469 18.976563 68.984375 16.050781 69 13.953125 C 69.023438 10.859375 67.898438 8.5625 67.898438 8.5625 L 67.164063 7.050781 L 66.1875 8.417969 C 66.1875 8.417969 63.542969 12.015625 60.289063 13.988281 C 54.691406 9.613281 47.648438 7 40 7 Z M 40 9 C 57.132813 9 71 22.867188 71 40 C 71 57.132813 57.132813 71 40 71 C 22.867188 71 9 57.132813 9 40 C 9 22.867188 22.867188 9 40 9 Z M 13.398438 11.039063 C 14.375 12.234375 15.882813 13.917969 18.078125 15.347656 C 16.554688 16.707031 15.15625 18.203125 13.90625 19.820313 C 13.203125 17.75 13.011719 15.589844 13 13.9375 C 12.992188 12.765625 13.195313 11.816406 13.398438 11.039063 Z M 66.601563 11.042969 C 66.800781 11.816406 67.007813 12.769531 67 13.9375 C 66.988281 15.589844 66.800781 17.753906 66.097656 19.824219 C 64.84375 18.207031 63.449219 16.707031 61.921875 15.347656 C 64.117188 13.917969 65.625 12.234375 66.601563 11.042969 Z M 26 26 C 25.449219 26 25 26.449219 25 27 C 25 27.550781 25.449219 28 26 28 C 26.550781 28 27 27.550781 27 27 C 27 26.449219 26.550781 26 26 26 Z M 54 26 C 53.449219 26 53 26.449219 53 27 C 53 27.550781 53.449219 28 54 28 C 54.550781 28 55 27.550781 55 27 C 55 26.449219 54.550781 26 54 26 Z M 29 29 C 28.449219 29 28 29.449219 28 30 C 28 30.550781 28.449219 31 29 31 C 29.550781 31 30 30.550781 30 30 C 30 29.449219 29.550781 29 29 29 Z M 51 29 C 50.449219 29 50 29.449219 50 30 C 50 30.550781 50.449219 31 51 31 C 51.550781 31 52 30.550781 52 30 C 52 29.449219 51.550781 29 51 29 Z M 23.71875 30.585938 L 23.011719 31.292969 C 20.339844 33.960938 20.339844 38.320313 23.011719 40.988281 C 25.679688 43.660156 30.039063 43.660156 32.707031 40.988281 L 33.414063 40.28125 Z M 56.28125 30.585938 L 46.585938 40.28125 L 47.292969 40.988281 C 49.960938 43.660156 54.320313 43.660156 56.988281 40.988281 C 59.660156 38.320313 59.660156 33.960938 56.988281 31.292969 Z M 32 32 C 31.449219 32 31 32.449219 31 33 C 31 33.550781 31.449219 34 32 34 C 32.550781 34 33 33.550781 33 33 C 33 32.449219 32.550781 32 32 32 Z M 48 32 C 47.449219 32 47 32.449219 47 33 C 47 33.550781 47.449219 34 48 34 C 48.550781 34 49 33.550781 49 33 C 49 32.449219 48.550781 32 48 32 Z M 23.859375 33.558594 L 30.441406 40.140625 C 28.558594 41.359375 26.078125 41.230469 24.421875 39.578125 C 22.769531 37.921875 22.640625 35.441406 23.859375 33.558594 Z M 56.140625 33.558594 C 57.359375 35.441406 57.230469 37.921875 55.578125 39.578125 C 53.921875 41.230469 51.441406 41.359375 49.558594 40.140625 Z M 35 35 C 34.449219 35 34 35.449219 34 36 C 34 36.550781 34.449219 37 35 37 C 35.550781 37 36 36.550781 36 36 C 36 35.449219 35.550781 35 35 35 Z M 45 35 C 44.449219 35 44 35.449219 44 36 C 44 36.550781 44.449219 37 45 37 C 45.550781 37 46 36.550781 46 36 C 46 35.449219 45.550781 35 45 35 Z M 27 38 C 26.449219 38 26 38.449219 26 39 C 26 39.550781 26.449219 40 27 40 C 27.550781 40 28 39.550781 28 39 C 28 38.449219 27.550781 38 27 38 Z M 53 38 C 52.449219 38 52 38.449219 52 39 C 52 39.550781 52.449219 40 53 40 C 53.550781 40 54 39.550781 54 39 C 54 38.449219 53.550781 38 53 38 Z M 40 48 C 30.851563 48 25.628906 50.074219 25.628906 50.074219 L 26.371094 51.925781 C 26.371094 51.925781 27.582031 51.441406 29.910156 50.953125 L 32 56 L 33.609375 50.371094 C 35.425781 50.15625 37.539063 50 40 50 C 42.460938 50 44.574219 50.15625 46.390625 50.371094 L 48 56 L 50.089844 50.953125 C 52.417969 51.441406 53.628906 51.925781 53.628906 51.925781 L 54.371094 50.074219 C 54.371094 50.074219 49.148438 48 40 48 Z M 17.5625 54 C 17.359375 53.996094 17.164063 54.054688 16.996094 54.167969 C 16.539063 54.476563 16.414063 55.09375 16.71875 55.554688 C 17.027344 56.011719 17.648438 56.136719 18.109375 55.828125 C 18.566406 55.523438 18.691406 54.902344 18.386719 54.441406 C 18.203125 54.167969 17.894531 54 17.5625 54 Z M 62.46875 54 C 62.128906 53.992188 61.808594 54.160156 61.621094 54.441406 C 61.3125 54.902344 61.4375 55.519531 61.894531 55.828125 C 62.113281 55.976563 62.386719 56.03125 62.644531 55.976563 C 62.90625 55.925781 63.136719 55.773438 63.28125 55.550781 C 63.589844 55.09375 63.464844 54.472656 63.003906 54.167969 C 62.847656 54.058594 62.660156 54 62.46875 54 Z M 20.921875 58.09375 C 20.652344 58.085938 20.390625 58.191406 20.203125 58.386719 C 19.8125 58.773438 19.8125 59.410156 20.203125 59.796875 C 20.589844 60.1875 21.226563 60.1875 21.613281 59.796875 C 22.003906 59.410156 22.003906 58.773438 21.613281 58.386719 C 21.429688 58.199219 21.183594 58.097656 20.921875 58.09375 Z M 59.105469 58.09375 C 58.835938 58.089844 58.574219 58.195313 58.386719 58.386719 C 57.996094 58.773438 57.996094 59.410156 58.386719 59.796875 C 58.773438 60.1875 59.410156 60.1875 59.796875 59.796875 C 60.1875 59.410156 60.1875 58.773438 59.796875 58.386719 C 59.613281 58.199219 59.367188 58.09375 59.105469 58.09375 Z M 55.015625 61.449219 C 54.8125 61.445313 54.613281 61.503906 54.449219 61.613281 C 54.226563 61.761719 54.074219 61.992188 54.023438 62.253906 C 53.96875 62.511719 54.023438 62.785156 54.171875 63.003906 C 54.480469 63.460938 55.097656 63.585938 55.558594 63.28125 C 56.015625 62.972656 56.140625 62.351563 55.832031 61.890625 C 55.652344 61.617188 55.34375 61.449219 55.015625 61.449219 Z M 25.019531 61.449219 C 24.679688 61.441406 24.359375 61.609375 24.171875 61.890625 C 23.863281 62.351563 23.988281 62.972656 24.449219 63.28125 C 24.90625 63.585938 25.527344 63.460938 25.832031 63.003906 C 26.140625 62.542969 26.015625 61.925781 25.558594 61.617188 C 25.398438 61.511719 25.214844 61.453125 25.019531 61.449219 Z M 29.691406 63.941406 C 29.277344 63.933594 28.902344 64.179688 28.746094 64.5625 C 28.535156 65.070313 28.777344 65.65625 29.285156 65.867188 C 29.796875 66.078125 30.382813 65.835938 30.59375 65.328125 C 30.804688 64.816406 30.5625 64.230469 30.050781 64.019531 C 29.9375 63.972656 29.816406 63.945313 29.691406 63.941406 Z M 50.34375 63.941406 C 50.207031 63.941406 50.074219 63.96875 49.953125 64.019531 C 49.441406 64.230469 49.199219 64.816406 49.410156 65.328125 C 49.621094 65.835938 50.207031 66.078125 50.71875 65.867188 C 51.226563 65.65625 51.46875 65.070313 51.257813 64.5625 C 51.105469 64.191406 50.742188 63.945313 50.34375 63.941406 Z M 34.761719 65.484375 C 34.273438 65.46875 33.851563 65.808594 33.753906 66.285156 C 33.703125 66.546875 33.753906 66.816406 33.902344 67.035156 C 34.050781 67.257813 34.277344 67.410156 34.539063 67.464844 C 34.800781 67.515625 35.070313 67.460938 35.289063 67.3125 C 35.511719 67.164063 35.664063 66.9375 35.714844 66.675781 C 35.824219 66.132813 35.472656 65.609375 34.929688 65.5 C 34.875 65.488281 34.816406 65.484375 34.761719 65.484375 Z M 45.273438 65.484375 C 45.207031 65.480469 45.140625 65.488281 45.074219 65.5 C 44.53125 65.609375 44.179688 66.132813 44.289063 66.675781 C 44.339844 66.9375 44.492188 67.164063 44.714844 67.3125 C 44.933594 67.460938 45.203125 67.515625 45.464844 67.464844 C 46.007813 67.355469 46.359375 66.828125 46.25 66.285156 C 46.15625 65.820313 45.75 65.484375 45.273438 65.484375 Z M 40 66 C 39.449219 66 39 66.449219 39 67 C 39 67.550781 39.449219 68 40 68 C 40.554688 68 41 67.550781 41 67 C 41 66.449219 40.554688 66 40 66 Z "></path>
    </g>
</svg>
