<svg xmlns="http://www.w3.org/2000/svg" viewBox="0 0 80 80">
    <defs>
        <linearGradient id="f">
            <stop offset="0%" stop-color="#F0F2F0"></stop>
            <stop offset="100%" stop-color="#000C40"></stop>
        </linearGradient>
    </defs>
    <path fill="url('#f')" d="M 40 7 C 21.785621 7 7 21.785621 7 40 C 7 58.214379 21.785621 73 40 73 C 58.214379 73 73 58.214379 73 40 C 73 21.839787 58.297983 7.1032037 40.158203 7.015625 A 1.0001 1.0001 0 0 0 40 7 z M 40 9 C 57.133621 9 71 22.866379 71 40 C 71 57.133621 57.133621 71 40 71 C 22.866379 71 9 57.133621 9 40 C 9 22.866379 22.866379 9 40 9 z M 40 12 A 1 1 0 0 0 39 13 A 1 1 0 0 0 40 14 A 1 1 0 0 0 41 13 A 1 1 0 0 0 40 12 z M 34.734375 12.519531 A 1 1 0 0 0 33.734375 13.519531 A 1 1 0 0 0 34.734375 14.519531 A 1 1 0 0 0 35.734375 13.519531 A 1 1 0 0 0 34.734375 12.519531 z M 45.267578 12.519531 A 1 1 0 0 0 44.267578 13.519531 A 1 1 0 0 0 45.267578 14.519531 A 1 1 0 0 0 46.267578 13.519531 A 1 1 0 0 0 45.267578 12.519531 z M 29.669922 14.054688 A 1 1 0 0 0 28.669922 15.054688 A 1 1 0 0 0 29.669922 16.054688 A 1 1 0 0 0 30.669922 15.054688 A 1 1 0 0 0 29.669922 14.054688 z M 50.332031 14.054688 A 1 1 0 0 0 49.332031 15.054688 A 1 1 0 0 0 50.332031 16.054688 A 1 1 0 0 0 51.332031 15.054688 A 1 1 0 0 0 50.332031 14.054688 z M 55.001953 16.548828 A 1 1 0 0 0 54.001953 17.548828 A 1 1 0 0 0 55.001953 18.548828 A 1 1 0 0 0 56.001953 17.548828 A 1 1 0 0 0 55.001953 16.548828 z M 25.001953 16.550781 A 1 1 0 0 0 24.001953 17.550781 A 1 1 0 0 0 25.001953 18.550781 A 1 1 0 0 0 26.001953 17.550781 A 1 1 0 0 0 25.001953 16.550781 z M 20.908203 19.908203 A 1 1 0 0 0 19.908203 20.908203 A 1 1 0 0 0 20.908203 21.908203 A 1 1 0 0 0 21.908203 20.908203 A 1 1 0 0 0 20.908203 19.908203 z M 59.091797 19.908203 A 1 1 0 0 0 58.091797 20.908203 A 1 1 0 0 0 59.091797 21.908203 A 1 1 0 0 0 60.091797 20.908203 A 1 1 0 0 0 59.091797 19.908203 z M 33.496094 22.078125 C 32.417638 22.068406 29.963592 22.161477 27.583984 23.064453 C 21.569746 25.351144 19.134766 29.5 19.134766 29.5 L 20.865234 30.5 C 20.865234 30.5 22.846602 27.006943 28.292969 24.935547 C 30.944159 23.929515 33.9375 24.091797 33.9375 24.091797 L 34.0625 22.095703 C 34.0625 22.095703 33.855579 22.081365 33.496094 22.078125 z M 46.503906 22.078125 C 46.144421 22.081365 45.9375 22.095703 45.9375 22.095703 L 46.0625 24.091797 C 46.0625 24.091797 49.054371 23.930335 51.705078 24.935547 C 57.152839 27.006856 59.134766 30.5 59.134766 30.5 L 60.865234 29.5 C 60.865234 29.5 58.430254 25.351144 52.416016 23.064453 C 50.036408 22.161477 47.582362 22.068406 46.503906 22.078125 z M 62.453125 23.998047 A 1 1 0 0 0 61.453125 24.998047 A 1 1 0 0 0 62.453125 25.998047 A 1 1 0 0 0 63.453125 24.998047 A 1 1 0 0 0 62.453125 23.998047 z M 17.552734 24 A 1 1 0 0 0 16.552734 25 A 1 1 0 0 0 17.552734 26 A 1 1 0 0 0 18.552734 25 A 1 1 0 0 0 17.552734 24 z M 30 32 C 24.466667 32 21.199219 36.400391 21.199219 36.400391 L 22.800781 37.599609 C 22.800781 37.599609 24.010917 36.01571 26.126953 34.949219 C 26.558327 36.691312 28.13089 38 30 38 C 31.973473 38 33.616834 36.542421 33.933594 34.654297 C 34.295947 34.785833 34.552734 34.894531 34.552734 34.894531 L 35.447266 33.105469 C 35.447266 33.105469 33.222222 32 30 32 z M 50 32 C 46.777778 32 44.552734 33.105469 44.552734 33.105469 L 45.447266 34.894531 C 45.447266 34.894531 45.704053 34.785833 46.066406 34.654297 C 46.383166 36.542421 48.026527 38 50 38 C 51.86911 38 53.441673 36.691312 53.873047 34.949219 C 55.989083 36.01571 57.199219 37.599609 57.199219 37.599609 L 58.800781 36.400391 C 58.800781 36.400391 55.533333 32 50 32 z M 30 34 C 30.739617 34 31.401524 34.065138 31.984375 34.158203 C 31.904045 35.197454 31.062321 36 30 36 C 28.968572 36 28.146453 35.243074 28.025391 34.248047 C 28.639833 34.097128 29.295312 34 30 34 z M 50 34 C 50.704688 34 51.360167 34.097128 51.974609 34.248047 C 51.853547 35.243074 51.031428 36 50 36 C 48.937679 36 48.095955 35.197454 48.015625 34.158203 C 48.598476 34.065138 49.260383 34 50 34 z M 40 48 C 32.739983 48 27.992349 52.869081 26.263672 56.771484 C 25.292545 58.962708 27.29521 61.442937 29.640625 60.927734 C 31.872562 60.437912 36.309099 60 40 60 C 43.690901 60 48.127438 60.437912 50.359375 60.927734 C 52.705176 61.443022 54.707898 58.962252 53.736328 56.771484 C 52.007651 52.869081 47.260017 48 40 48 z M 40 50 C 46.355983 50 50.48288 54.362481 51.908203 57.580078 L 51.908203 57.582031 C 52.270633 58.399264 51.657261 59.165321 50.789062 58.974609 C 48.273001 58.422385 43.843099 58 40 58 C 36.156901 58 31.727 58.422432 29.210938 58.974609 C 28.342351 59.165406 27.728924 58.400808 28.091797 57.582031 L 28.091797 57.580078 C 29.51712 54.362528 33.644017 50 40 50 z"></path>
</svg>
