<svg xmlns="http://www.w3.org/2000/svg" viewBox="0 0 80 80" version="1.1">
    <defs>
        <linearGradient id="f">
            <stop offset="0%" stop-color="#84fab0"></stop>
            <stop offset="100%" stop-color="#8fd3f4"></stop>
        </linearGradient>
    </defs>
    <g>
        <path d="M 40 7 C 21.785156 7 7 21.785156 7 40 C 7 58.214844 21.785156 73 40 73 C 58.214844 73 73 58.214844 73 40 C 73 21.785156 58.214844 7 40 7 Z M 40 9 C 57.132813 9 71 22.867188 71 40 C 71 57.132813 57.132813 71 40 71 C 22.867188 71 9 57.132813 9 40 C 9 22.867188 22.867188 9 40 9 Z M 40 12 C 39.449219 12 39 12.449219 39 13 C 39 13.550781 39.449219 14 40 14 C 40.550781 14 41 13.550781 41 13 C 41 12.449219 40.550781 12 40 12 Z M 45.292969 12.515625 C 44.804688 12.503906 44.382813 12.84375 44.285156 13.324219 C 44.179688 13.863281 44.53125 14.390625 45.074219 14.5 C 45.613281 14.605469 46.140625 14.253906 46.25 13.714844 C 46.355469 13.171875 46.003906 12.644531 45.464844 12.535156 C 45.40625 12.527344 45.351563 12.519531 45.292969 12.515625 Z M 34.738281 12.519531 C 34.671875 12.519531 34.605469 12.523438 34.539063 12.535156 C 33.996094 12.644531 33.644531 13.171875 33.753906 13.714844 C 33.804688 13.972656 33.957031 14.203125 34.179688 14.351563 C 34.398438 14.496094 34.667969 14.550781 34.929688 14.5 C 35.472656 14.390625 35.824219 13.867188 35.714844 13.324219 C 35.621094 12.859375 35.214844 12.523438 34.738281 12.519531 Z M 29.675781 14.054688 C 29.542969 14.054688 29.410156 14.078125 29.285156 14.128906 C 28.773438 14.34375 28.53125 14.925781 28.746094 15.4375 C 28.957031 15.949219 29.539063 16.191406 30.050781 15.980469 C 30.5625 15.765625 30.804688 15.183594 30.59375 14.671875 C 30.4375 14.300781 30.078125 14.058594 29.675781 14.054688 Z M 50.355469 14.054688 C 49.941406 14.046875 49.566406 14.289063 49.40625 14.671875 C 49.195313 15.183594 49.4375 15.765625 49.949219 15.980469 C 50.460938 16.191406 51.042969 15.949219 51.253906 15.4375 C 51.46875 14.925781 51.226563 14.34375 50.714844 14.128906 C 50.601563 14.082031 50.476563 14.058594 50.355469 14.054688 Z M 25.011719 16.546875 C 24.808594 16.546875 24.609375 16.605469 24.441406 16.71875 C 23.984375 17.023438 23.859375 17.644531 24.167969 18.105469 C 24.472656 18.5625 25.09375 18.6875 25.554688 18.378906 C 26.015625 18.074219 26.136719 17.453125 25.832031 16.996094 C 25.648438 16.71875 25.339844 16.550781 25.011719 16.546875 Z M 55.015625 16.546875 C 54.675781 16.542969 54.355469 16.710938 54.167969 16.996094 C 53.859375 17.453125 53.984375 18.074219 54.441406 18.378906 C 54.902344 18.6875 55.523438 18.5625 55.828125 18.105469 C 55.976563 17.886719 56.03125 17.613281 55.980469 17.355469 C 55.929688 17.09375 55.777344 16.863281 55.554688 16.71875 C 55.394531 16.609375 55.210938 16.550781 55.015625 16.546875 Z M 20.921875 19.90625 C 20.652344 19.90625 20.390625 20.011719 20.203125 20.203125 C 19.8125 20.589844 19.8125 21.226563 20.203125 21.613281 C 20.589844 22.003906 21.226563 22.003906 21.613281 21.613281 C 22.003906 21.226563 22.003906 20.589844 21.613281 20.203125 C 21.429688 20.015625 21.183594 19.910156 20.921875 19.90625 Z M 59.105469 19.90625 C 58.835938 19.90625 58.574219 20.011719 58.386719 20.203125 C 57.996094 20.589844 57.996094 21.226563 58.386719 21.613281 C 58.773438 22.003906 59.410156 22.003906 59.796875 21.613281 C 60.1875 21.226563 60.1875 20.589844 59.796875 20.203125 C 59.613281 20.015625 59.367188 19.910156 59.105469 19.90625 Z M 62.460938 24 C 62.257813 23.996094 62.0625 24.054688 61.894531 24.167969 C 61.4375 24.472656 61.3125 25.09375 61.621094 25.550781 C 61.925781 26.011719 62.546875 26.136719 63.003906 25.828125 C 63.464844 25.519531 63.589844 24.902344 63.28125 24.441406 C 63.097656 24.167969 62.789063 24 62.460938 24 Z M 17.566406 24 C 17.226563 23.992188 16.90625 24.160156 16.71875 24.441406 C 16.414063 24.902344 16.535156 25.523438 16.996094 25.828125 C 17.457031 26.136719 18.074219 26.011719 18.382813 25.554688 C 18.6875 25.09375 18.566406 24.472656 18.105469 24.167969 C 17.945313 24.0625 17.761719 24.003906 17.566406 24 Z M 29 26 C 25.054688 26 22 29.671875 22 34 C 22 38.328125 25.054688 42 29 42 C 32.945313 42 36 38.328125 36 34 C 36 29.671875 32.945313 26 29 26 Z M 51 26 C 47.054688 26 44 29.671875 44 34 C 44 38.328125 47.054688 42 51 42 C 54.945313 42 58 38.328125 58 34 C 58 29.671875 54.945313 26 51 26 Z M 29 28 C 31.683594 28 34 30.597656 34 34 C 34 37.402344 31.683594 40 29 40 C 26.316406 40 24 37.402344 24 34 C 24 30.597656 26.316406 28 29 28 Z M 51 28 C 53.683594 28 56 30.597656 56 34 C 56 37.402344 53.683594 40 51 40 C 48.316406 40 46 37.402344 46 34 C 46 30.597656 48.316406 28 51 28 Z M 29 34 C 27.894531 34 27 34.894531 27 36 C 27 37.105469 27.894531 38 29 38 C 30.105469 38 31 37.105469 31 36 C 31 34.894531 30.105469 34 29 34 Z M 51 34 C 49.894531 34 49 34.894531 49 36 C 49 37.105469 49.894531 38 51 38 C 52.105469 38 53 37.105469 53 36 C 53 34.894531 52.105469 34 51 34 Z M 40 45 C 33.382813 45 28 50.382813 28 57 L 28 58 L 28.417969 58 C 28.859375 59.105469 29.742188 60 31 60 L 49 60 C 50.257813 60 51.140625 59.105469 51.582031 58 L 52 58 L 52 57 C 52 50.382813 46.617188 45 40 45 Z M 40 47 C 43.277344 47 46.171875 48.574219 47.996094 51 C 47.445313 51.003906 47 51.449219 47 52 C 47 52.550781 47.449219 53 48 53 C 48.382813 53 48.730469 52.78125 48.894531 52.4375 C 49.597656 53.808594 50 55.355469 50 57 C 50 57.566406 49.566406 58 49 58 L 31 58 C 30.433594 58 30 57.566406 30 57 C 30 55.355469 30.402344 53.808594 31.105469 52.4375 C 31.269531 52.78125 31.617188 53 32 53 C 32.550781 53 33 52.550781 33 52 C 33 51.449219 32.554688 51.003906 32.003906 51 C 33.828125 48.574219 36.722656 47 40 47 Z M 36 50 C 35.449219 50 35 50.449219 35 51 C 35 51.550781 35.449219 52 36 52 C 36.550781 52 37 51.550781 37 51 C 37 50.449219 36.550781 50 36 50 Z M 40 50 C 39.449219 50 39 50.449219 39 51 C 39 51.550781 39.449219 52 40 52 C 40.550781 52 41 51.550781 41 51 C 41 50.449219 40.550781 50 40 50 Z M 44 50 C 43.449219 50 43 50.449219 43 51 C 43 51.550781 43.449219 52 44 52 C 44.550781 52 45 51.550781 45 51 C 45 50.449219 44.550781 50 44 50 Z "></path>
    </g>
</svg>
