<svg xmlns="http://www.w3.org/2000/svg" viewBox="0 0 80 80" version="1.1">
    <defs>
        <linearGradient id="sad">
            <stop offset="0%" stop-color="#a1c4fd"></stop>
            <stop offset="100%" stop-color="#c2e9fb"></stop>
        </linearGradient>
    </defs>
    <g fill="url(#sad)" id="surface1">
        <path style=" " d="M 40 7 C 21.785156 7 7 21.785156 7 40 C 7 58.214844 21.785156 73 40 73 C 47.929688 73 55.210938 70.1875 60.902344 65.519531 C 61.542969 65.820313 62.25 66 63 66 C 65.75 66 68 63.75 68 61 C 68 60.191406 67.722656 59.359375 67.363281 58.410156 C 70.910156 53.148438 73 46.820313 73 40 C 73 21.785156 58.214844 7 40 7 Z M 40 9 C 57.132813 9 71 22.867188 71 40 C 71 45.941406 69.316406 51.46875 66.421875 56.183594 C 66.246094 55.808594 66.074219 55.433594 65.898438 55.066406 C 64.882813 52.980469 63.871094 51.175781 63.871094 51.175781 L 63 49.625 L 62.128906 51.175781 C 62.128906 51.175781 61.117188 52.980469 60.101563 55.066406 C 59.59375 56.113281 59.082031 57.230469 58.691406 58.25 C 58.300781 59.273438 58 60.144531 58 61 C 58 62.257813 58.484375 63.394531 59.257813 64.277344 C 53.96875 68.480469 47.285156 71 40 71 C 22.867188 71 9 57.132813 9 40 C 9 22.867188 22.867188 9 40 9 Z M 40 12 C 39.449219 12 39 12.449219 39 13 C 39 13.550781 39.449219 14 40 14 C 40.550781 14 41 13.550781 41 13 C 41 12.449219 40.550781 12 40 12 Z M 45.292969 12.515625 C 44.804688 12.503906 44.382813 12.84375 44.285156 13.324219 C 44.179688 13.863281 44.53125 14.390625 45.074219 14.5 C 45.613281 14.605469 46.140625 14.253906 46.25 13.714844 C 46.355469 13.171875 46.003906 12.644531 45.464844 12.535156 C 45.40625 12.527344 45.351563 12.519531 45.292969 12.515625 Z M 34.738281 12.519531 C 34.671875 12.519531 34.605469 12.523438 34.539063 12.535156 C 33.996094 12.644531 33.644531 13.171875 33.753906 13.714844 C 33.804688 13.972656 33.957031 14.203125 34.179688 14.351563 C 34.398438 14.496094 34.667969 14.550781 34.929688 14.5 C 35.472656 14.390625 35.824219 13.867188 35.714844 13.324219 C 35.621094 12.859375 35.214844 12.523438 34.738281 12.519531 Z M 29.675781 14.054688 C 29.542969 14.054688 29.410156 14.078125 29.285156 14.128906 C 28.773438 14.34375 28.53125 14.925781 28.746094 15.4375 C 28.957031 15.949219 29.539063 16.191406 30.050781 15.980469 C 30.5625 15.765625 30.804688 15.183594 30.59375 14.671875 C 30.4375 14.300781 30.078125 14.058594 29.675781 14.054688 Z M 50.355469 14.054688 C 49.941406 14.046875 49.566406 14.289063 49.40625 14.671875 C 49.195313 15.183594 49.4375 15.765625 49.949219 15.980469 C 50.460938 16.191406 51.042969 15.949219 51.253906 15.4375 C 51.46875 14.925781 51.226563 14.34375 50.714844 14.128906 C 50.601563 14.082031 50.476563 14.058594 50.355469 14.054688 Z M 25.011719 16.546875 C 24.808594 16.546875 24.609375 16.605469 24.441406 16.71875 C 23.984375 17.023438 23.859375 17.644531 24.167969 18.105469 C 24.472656 18.5625 25.09375 18.6875 25.554688 18.378906 C 26.015625 18.074219 26.136719 17.453125 25.832031 16.996094 C 25.648438 16.71875 25.339844 16.550781 25.011719 16.546875 Z M 55.015625 16.546875 C 54.675781 16.542969 54.355469 16.710938 54.167969 16.996094 C 53.859375 17.453125 53.984375 18.074219 54.441406 18.378906 C 54.902344 18.6875 55.523438 18.5625 55.828125 18.105469 C 55.976563 17.886719 56.03125 17.613281 55.980469 17.355469 C 55.929688 17.09375 55.777344 16.863281 55.554688 16.71875 C 55.394531 16.609375 55.210938 16.550781 55.015625 16.546875 Z M 20.921875 19.90625 C 20.652344 19.90625 20.390625 20.011719 20.203125 20.203125 C 19.8125 20.589844 19.8125 21.226563 20.203125 21.613281 C 20.589844 22.003906 21.226563 22.003906 21.613281 21.613281 C 22.003906 21.226563 22.003906 20.589844 21.613281 20.203125 C 21.429688 20.015625 21.183594 19.910156 20.921875 19.90625 Z M 59.105469 19.90625 C 58.835938 19.90625 58.574219 20.011719 58.386719 20.203125 C 57.996094 20.589844 57.996094 21.226563 58.386719 21.613281 C 58.773438 22.003906 59.410156 22.003906 59.796875 21.613281 C 60.1875 21.226563 60.1875 20.589844 59.796875 20.203125 C 59.613281 20.015625 59.367188 19.910156 59.105469 19.90625 Z M 62.460938 24 C 62.257813 23.996094 62.0625 24.054688 61.894531 24.167969 C 61.4375 24.472656 61.3125 25.09375 61.621094 25.550781 C 61.925781 26.011719 62.546875 26.136719 63.003906 25.828125 C 63.464844 25.519531 63.589844 24.902344 63.28125 24.441406 C 63.097656 24.167969 62.789063 24 62.460938 24 Z M 17.566406 24 C 17.226563 23.992188 16.90625 24.160156 16.71875 24.441406 C 16.414063 24.902344 16.535156 25.523438 16.996094 25.828125 C 17.457031 26.136719 18.074219 26.011719 18.382813 25.554688 C 18.6875 25.09375 18.566406 24.472656 18.105469 24.167969 C 17.945313 24.0625 17.761719 24.003906 17.566406 24 Z M 34 28 C 25.84375 28 21.191406 34.410156 21.191406 34.410156 L 22.808594 35.589844 C 22.808594 35.589844 26.890625 30 34 30 Z M 46 28 L 46 30 C 53.109375 30 57.191406 35.589844 57.191406 35.589844 L 58.808594 34.410156 C 58.808594 34.410156 54.15625 28 46 28 Z M 22 37.292969 L 21.128906 38.84375 C 21.128906 38.84375 20.617188 39.753906 20.101563 40.8125 C 19.84375 41.34375 19.582031 41.914063 19.378906 42.449219 C 19.175781 42.980469 19 43.421875 19 44 C 19 45.644531 20.355469 47 22 47 C 23.644531 47 25 45.644531 25 44 C 25 43.421875 24.824219 42.980469 24.621094 42.449219 C 24.417969 41.914063 24.15625 41.34375 23.898438 40.8125 C 23.382813 39.753906 22.871094 38.84375 22.871094 38.84375 Z M 40 41 C 32.738281 41 27.992188 45.867188 26.265625 49.769531 C 25.292969 51.960938 27.296875 54.441406 29.640625 53.925781 C 31.871094 53.4375 36.308594 53 40 53 C 43.691406 53 48.128906 53.4375 50.359375 53.925781 C 52.707031 54.441406 54.707031 51.960938 53.734375 49.769531 C 52.007813 45.867188 47.261719 41 40 41 Z M 22 41.496094 C 22.050781 41.59375 22.050781 41.585938 22.101563 41.6875 C 22.34375 42.1875 22.582031 42.71875 22.753906 43.160156 C 22.925781 43.605469 23 44.027344 23 44 C 23 44.566406 22.566406 45 22 45 C 21.433594 45 21 44.566406 21 44 C 21 44.027344 21.074219 43.605469 21.246094 43.160156 C 21.417969 42.71875 21.65625 42.1875 21.898438 41.6875 C 21.949219 41.585938 21.949219 41.59375 22 41.496094 Z M 40 43 C 46.355469 43 50.484375 47.363281 51.90625 50.578125 L 51.90625 50.582031 C 52.269531 51.398438 51.65625 52.164063 50.789063 51.972656 C 48.273438 51.421875 43.84375 51 40 51 C 36.15625 51 31.726563 51.421875 29.210938 51.972656 C 28.34375 52.164063 27.730469 51.402344 28.09375 50.582031 L 28.09375 50.578125 C 29.515625 47.363281 33.644531 43 40 43 Z M 63 53.828125 C 63.378906 54.535156 63.550781 54.808594 64.101563 55.941406 C 64.59375 56.953125 65.082031 58.03125 65.441406 58.96875 C 65.800781 59.902344 66 60.75 66 61 C 66 62.667969 64.667969 64 63 64 C 61.332031 64 60 62.667969 60 61 C 60 60.75 60.199219 59.902344 60.558594 58.96875 C 60.917969 58.03125 61.40625 56.953125 61.898438 55.941406 C 62.449219 54.808594 62.621094 54.535156 63 53.828125 Z "></path>
    </g>
</svg>
