<svg xmlns="http://www.w3.org/2000/svg" xlink="http://www.w3.org/1999/xlink" viewBox="0 0 80 80" version="1.1">
    <defs>
        <linearGradient id="surprise">
            <stop offset="0%" stop-color="#fbc2eb"></stop>
            <stop offset="100%" stop-color="#a6c1ee"></stop>
        </linearGradient>
    </defs>
    <g fill="url(#surprise)" id="surface1">
        <path style=" " d="M 40 7 C 21.785156 7 7 21.785156 7 40 C 7 58.214844 21.785156 73 40 73 C 58.214844 73 73 58.214844 73 40 C 73 21.785156 58.214844 7 40 7 Z M 40 9 C 57.132813 9 71 22.867188 71 40 C 71 57.132813 57.132813 71 40 71 C 22.867188 71 9 57.132813 9 40 C 9 22.867188 22.867188 9 40 9 Z M 40 12 C 39.449219 12 39 12.449219 39 13 C 39 13.550781 39.449219 14 40 14 C 40.550781 14 41 13.550781 41 13 C 41 12.449219 40.550781 12 40 12 Z M 45.292969 12.515625 C 44.804688 12.503906 44.382813 12.84375 44.285156 13.324219 C 44.179688 13.863281 44.53125 14.390625 45.074219 14.5 C 45.613281 14.605469 46.140625 14.253906 46.25 13.714844 C 46.355469 13.171875 46.003906 12.644531 45.464844 12.535156 C 45.40625 12.527344 45.351563 12.519531 45.292969 12.515625 Z M 34.738281 12.519531 C 34.671875 12.519531 34.605469 12.523438 34.539063 12.535156 C 33.996094 12.644531 33.644531 13.171875 33.753906 13.714844 C 33.804688 13.972656 33.957031 14.203125 34.179688 14.351563 C 34.398438 14.496094 34.667969 14.550781 34.929688 14.5 C 35.472656 14.390625 35.824219 13.867188 35.714844 13.324219 C 35.621094 12.859375 35.214844 12.523438 34.738281 12.519531 Z M 29.675781 14.054688 C 29.542969 14.054688 29.410156 14.078125 29.285156 14.128906 C 28.773438 14.34375 28.53125 14.925781 28.746094 15.4375 C 28.957031 15.949219 29.539063 16.191406 30.050781 15.980469 C 30.5625 15.765625 30.804688 15.183594 30.59375 14.671875 C 30.4375 14.300781 30.078125 14.058594 29.675781 14.054688 Z M 50.355469 14.054688 C 49.941406 14.046875 49.566406 14.289063 49.40625 14.671875 C 49.195313 15.183594 49.4375 15.765625 49.949219 15.980469 C 50.460938 16.191406 51.042969 15.949219 51.253906 15.4375 C 51.46875 14.925781 51.226563 14.34375 50.714844 14.128906 C 50.601563 14.082031 50.476563 14.058594 50.355469 14.054688 Z M 25.011719 16.546875 C 24.808594 16.546875 24.609375 16.605469 24.441406 16.71875 C 23.984375 17.023438 23.859375 17.644531 24.167969 18.105469 C 24.472656 18.5625 25.09375 18.6875 25.554688 18.378906 C 26.015625 18.074219 26.136719 17.453125 25.832031 16.996094 C 25.648438 16.71875 25.339844 16.550781 25.011719 16.546875 Z M 55.015625 16.546875 C 54.675781 16.542969 54.355469 16.710938 54.167969 16.996094 C 53.859375 17.453125 53.984375 18.074219 54.441406 18.378906 C 54.902344 18.6875 55.523438 18.5625 55.828125 18.105469 C 55.976563 17.886719 56.03125 17.613281 55.980469 17.355469 C 55.929688 17.09375 55.777344 16.863281 55.554688 16.71875 C 55.394531 16.609375 55.210938 16.550781 55.015625 16.546875 Z M 20.921875 19.90625 C 20.652344 19.90625 20.390625 20.011719 20.203125 20.203125 C 19.8125 20.589844 19.8125 21.226563 20.203125 21.613281 C 20.589844 22.003906 21.226563 22.003906 21.613281 21.613281 C 22.003906 21.226563 22.003906 20.589844 21.613281 20.203125 C 21.429688 20.015625 21.183594 19.910156 20.921875 19.90625 Z M 59.105469 19.90625 C 58.835938 19.90625 58.574219 20.011719 58.386719 20.203125 C 57.996094 20.589844 57.996094 21.226563 58.386719 21.613281 C 58.773438 22.003906 59.410156 22.003906 59.796875 21.613281 C 60.1875 21.226563 60.1875 20.589844 59.796875 20.203125 C 59.613281 20.015625 59.367188 19.910156 59.105469 19.90625 Z M 62.460938 24 C 62.257813 23.996094 62.0625 24.054688 61.894531 24.167969 C 61.4375 24.472656 61.3125 25.09375 61.621094 25.550781 C 61.925781 26.011719 62.546875 26.136719 63.003906 25.828125 C 63.464844 25.519531 63.589844 24.902344 63.28125 24.441406 C 63.097656 24.167969 62.789063 24 62.460938 24 Z M 17.566406 24 C 17.226563 23.992188 16.90625 24.160156 16.71875 24.441406 C 16.414063 24.902344 16.535156 25.523438 16.996094 25.828125 C 17.457031 26.136719 18.074219 26.011719 18.382813 25.554688 C 18.6875 25.09375 18.566406 24.472656 18.105469 24.167969 C 17.945313 24.0625 17.761719 24.003906 17.566406 24 Z M 24.441406 30.5 C 21.449219 30.5 19 32.949219 19 35.941406 C 19 38.609375 21.273438 40.863281 23.347656 42.644531 C 25.421875 44.429688 27.480469 45.6875 27.480469 45.6875 L 28 46.003906 L 28.519531 45.6875 C 28.519531 45.6875 30.578125 44.429688 32.652344 42.644531 C 34.726563 40.863281 37 38.609375 37 35.941406 C 37 32.949219 34.550781 30.5 31.558594 30.5 C 30.152344 30.5 28.960938 31.144531 28 32.019531 C 27.039063 31.144531 25.847656 30.5 24.441406 30.5 Z M 48.441406 30.5 C 45.449219 30.5 43 32.949219 43 35.941406 C 43 38.609375 45.273438 40.863281 47.347656 42.644531 C 49.421875 44.429688 51.480469 45.6875 51.480469 45.6875 L 52 46.003906 L 52.519531 45.6875 C 52.519531 45.6875 54.578125 44.429688 56.652344 42.644531 C 58.726563 40.863281 61 38.609375 61 35.941406 C 61 32.949219 58.550781 30.5 55.558594 30.5 C 54.152344 30.5 52.960938 31.144531 52 32.019531 C 51.039063 31.144531 49.847656 30.5 48.441406 30.5 Z M 24.441406 32.5 C 25.578125 32.5 26.566406 33.046875 27.199219 33.898438 L 28 34.976563 L 28.800781 33.902344 C 29.4375 33.050781 30.421875 32.5 31.558594 32.5 C 33.46875 32.5 35 34.03125 35 35.941406 C 35 37.277344 33.273438 39.472656 31.347656 41.128906 C 29.679688 42.566406 28.421875 43.328125 28 43.59375 C 27.578125 43.328125 26.320313 42.566406 24.652344 41.128906 C 22.726563 39.472656 21 37.277344 21 35.941406 C 21 34.03125 22.53125 32.5 24.441406 32.5 Z M 48.441406 32.5 C 49.578125 32.5 50.566406 33.046875 51.199219 33.898438 L 52 34.976563 L 52.800781 33.902344 C 53.4375 33.050781 54.421875 32.5 55.558594 32.5 C 57.46875 32.5 59 34.03125 59 35.941406 C 59 37.277344 57.273438 39.472656 55.347656 41.128906 C 53.679688 42.566406 52.421875 43.328125 52 43.59375 C 51.578125 43.328125 50.320313 42.566406 48.652344 41.128906 C 46.726563 39.472656 45 37.277344 45 35.941406 C 45 34.03125 46.53125 32.5 48.441406 32.5 Z M 23.773438 50.324219 L 25.152344 52.53125 C 25.152344 52.53125 30.40625 61 40 61 C 49.59375 61 54.847656 52.53125 54.847656 52.53125 L 56.226563 50.324219 L 53.722656 51.039063 C 53.722656 51.039063 46.808594 53 40 53 C 33.191406 53 26.277344 51.039063 26.277344 51.039063 Z M 28.703125 53.644531 C 31.34375 54.25 35.222656 55 40 55 C 44.777344 55 48.65625 54.25 51.296875 53.644531 C 49.230469 55.875 45.496094 59 40 59 C 34.503906 59 30.769531 55.875 28.703125 53.644531 Z "></path>
    </g>
</svg>
